<svg width="1210" height="832" xmlns="http://www.w3.org/2000/svg" xmlns:xlink="http://www.w3.org/1999/xlink" overflow="hidden"><defs><clipPath id="clip0"><rect x="0" y="0" width="1210" height="832"/></clipPath></defs><g clip-path="url(#clip0)"><rect x="0" y="0" width="1210" height="832.156" fill="#FFFFFF"/><path d="M605.5 0.500143 605.5 832.5" stroke="#4472C4" stroke-width="2.66777" stroke-miterlimit="8" fill="none" fill-rule="evenodd"/><path d="M97.5 416.078C97.5 410.831 101.753 406.576 107 406.576 112.247 406.576 116.5 410.831 116.5 416.078 116.5 421.326 112.247 425.58 107 425.58 101.753 425.58 97.5 421.326 97.5 416.078Z" stroke="#172C51" stroke-width="1.33388" stroke-miterlimit="8" fill="none" fill-rule="evenodd"/><path d="M236.5 416.578C236.5 406.083 245.007 397.575 255.5 397.575 265.993 397.575 274.5 406.083 274.5 416.578 274.5 427.074 265.993 435.582 255.5 435.582 245.007 435.582 236.5 427.074 236.5 416.578Z" stroke="#172C51" stroke-width="1.33388" stroke-miterlimit="8" fill="none" fill-rule="evenodd"/><path d="M412.5 416.578C412.5 401.111 425.26 388.573 441 388.573 456.74 388.573 469.5 401.111 469.5 416.578 469.5 432.045 456.74 444.583 441 444.583 425.26 444.583 412.5 432.045 412.5 416.578Z" stroke="#172C51" stroke-width="1.33388" stroke-miterlimit="8" fill="none" fill-rule="evenodd"/><path d="M166.5 416.578C166.5 408.292 173.216 401.575 181.5 401.575 189.784 401.575 196.5 408.292 196.5 416.578 196.5 424.864 189.784 431.581 181.5 431.581 173.216 431.581 166.5 424.864 166.5 416.578Z" stroke="#172C51" stroke-width="1.33388" stroke-miterlimit="8" fill="none" fill-rule="evenodd"/><path d="M323.5 416.078C323.5 402.545 334.469 391.574 348 391.574 361.531 391.574 372.5 402.545 372.5 416.078 372.5 429.612 361.531 440.583 348 440.583 334.469 440.583 323.5 429.612 323.5 416.078Z" stroke="#172C51" stroke-width="1.33388" stroke-miterlimit="8" fill="none" fill-rule="evenodd"/><rect x="712.5" y="406.576" width="19" height="19.0035" stroke="#44546A" stroke-width="1.33388" stroke-miterlimit="8" fill="none"/><rect x="780.5" y="401.575" width="30" height="30.0056" stroke="#44546A" stroke-width="1.33388" stroke-miterlimit="8" fill="none"/><rect x="850.5" y="397.575" width="37.9999" height="38.0071" stroke="#44546A" stroke-width="1.33388" stroke-miterlimit="8" fill="none"/><rect x="938.5" y="391.574" width="49" height="49.0092" stroke="#44546A" stroke-width="1.33388" stroke-miterlimit="8" fill="none"/><rect x="1027.5" y="388.573" width="56" height="56.0106" stroke="#44546A" stroke-width="1.33388" stroke-miterlimit="8" fill="none"/><text font-family="Calibri,Calibri_MSFontService,sans-serif" font-weight="400" font-size="24" transform="matrix(1 0 0 1.00019 9.60397 27)">Task: fill</text></g></svg>